<?xml version="1.0" standalone="no"?>
<!DOCTYPE svg PUBLIC "-//W3C//DTD SVG 20010904//EN"
 "http://www.w3.org/TR/2001/REC-SVG-20010904/DTD/svg10.dtd">
<svg version="1.0" xmlns="http://www.w3.org/2000/svg"
 width="500.000000pt" height="300.000000pt" viewBox="0 0 500.000000 300.000000"
 preserveAspectRatio="xMidYMid meet">

<g transform="translate(0.000000,300.000000) scale(0.100000,-0.100000)"
fill="#000000" stroke="none">
<path d="M4197 1888 c-291 -362 -287 -338 -51 -338 151 0 166 2 201 23 l38 22
-173 3 c-96 1 -172 6 -170 11 2 4 89 115 193 245 l190 238 3 -371 2 -371 25 0
c25 0 25 0 25 100 l0 100 70 0 c68 0 70 1 70 25 0 23 -3 24 -67 27 l-68 3 -3
288 -2 287 -24 0 c-19 0 -70 -58 -259 -292z"/>
<path d="M1020 1820 c0 -38 2 -40 30 -40 28 0 30 2 30 40 0 38 -2 40 -30 40
-28 0 -30 -2 -30 -40z"/>
<path d="M551 1610 c-24 -11 -61 -39 -82 -63 l-39 -42 0 53 c0 55 -4 60 -32
38 -16 -12 -18 -38 -18 -295 l0 -281 24 0 24 0 4 203 c4 183 6 206 26 244 66
127 238 159 329 61 47 -50 53 -84 53 -303 l0 -205 25 0 25 0 0 211 c0 130 -4
226 -11 250 -16 52 -64 108 -113 130 -56 25 -157 25 -215 -1z"/>
<path d="M1322 1615 c-82 -23 -101 -36 -91 -62 l8 -22 45 20 c58 25 158 35
214 20 56 -15 106 -61 120 -109 15 -49 16 -241 1 -279 -14 -38 -56 -80 -104
-106 -56 -30 -166 -30 -215 -1 -75 44 -100 122 -57 184 36 54 78 73 176 78 57
3 94 10 114 22 l29 18 -74 7 c-138 13 -259 -29 -299 -105 -23 -43 -25 -129 -4
-171 35 -68 158 -119 249 -105 56 9 116 37 159 76 l37 32 0 -46 c0 -42 2 -46
25 -46 l25 0 0 208 c0 217 -6 258 -43 313 -50 74 -194 108 -315 74z"/>
<path d="M1970 1621 c-69 -21 -141 -83 -175 -151 -26 -51 -31 -156 -11 -217
57 -172 280 -245 432 -141 25 17 34 30 34 51 l0 29 -31 -26 c-41 -35 -130 -60
-186 -52 -124 17 -205 111 -204 237 0 145 97 234 247 227 90 -4 154 -40 199
-112 30 -49 30 -50 33 -223 4 -209 -6 -250 -72 -311 -82 -76 -219 -80 -349
-12 -53 28 -62 30 -75 17 -20 -20 -10 -33 50 -63 151 -76 329 -63 424 31 69
69 74 100 74 432 l0 283 -25 0 c-24 0 -25 -3 -25 -62 l0 -63 -30 37 c-17 20
-58 50 -92 67 -51 26 -72 31 -127 30 -36 0 -77 -4 -91 -8z"/>
<path d="M2615 1616 c-84 -22 -108 -35 -101 -52 3 -9 6 -19 6 -23 0 -4 33 3
72 17 120 40 240 19 289 -50 41 -57 50 -279 14 -348 -35 -68 -150 -119 -242
-106 -88 12 -143 66 -143 141 0 90 61 137 189 143 51 3 98 11 116 20 l30 16
-40 7 c-101 19 -222 -1 -283 -48 -19 -14 -43 -44 -53 -67 -41 -91 -10 -178 81
-230 48 -27 64 -31 130 -30 87 0 130 16 189 69 l41 37 0 -46 c0 -45 1 -46 31
-46 l31 0 -4 218 c-5 231 -11 267 -61 320 -56 61 -186 87 -292 58z"/>
<path d="M3331 1618 c-56 -16 -121 -67 -155 -121 l-31 -50 -3 81 c-2 45 -5 82
-8 82 -3 0 -14 -5 -25 -10 -18 -10 -19 -24 -19 -295 l0 -285 24 0 24 0 4 168
c3 154 5 171 29 222 42 90 113 146 200 157 35 5 39 9 39 34 0 32 -16 36 -79
17z"/>
<path d="M3567 1611 c-76 -20 -92 -31 -83 -58 6 -19 8 -19 78 5 131 44 246 19
294 -64 25 -42 25 -49 22 -182 -3 -133 -4 -140 -30 -174 -42 -54 -108 -83
-193 -83 -114 1 -177 51 -177 142 0 90 60 134 191 141 51 3 98 11 116 20 l30
16 -45 9 c-51 9 -157 3 -213 -13 -47 -14 -106 -65 -123 -107 -36 -86 -1 -178
86 -227 48 -27 64 -31 130 -30 87 0 130 16 189 69 l41 37 0 -46 c0 -42 2 -46
25 -46 l25 0 0 223 c0 194 -3 227 -19 262 -48 108 -182 148 -344 106z"/>
<path d="M1053 1603 c-23 -15 -23 -16 -23 -299 l0 -284 25 0 25 0 0 300 c0
165 -1 300 -2 299 -2 0 -13 -7 -25 -16z"/>
</g>
</svg>
