<?xml version="1.0" standalone="no"?>
<!DOCTYPE svg PUBLIC "-//W3C//DTD SVG 20010904//EN"
 "http://www.w3.org/TR/2001/REC-SVG-20010904/DTD/svg10.dtd">
<svg version="1.0" xmlns="http://www.w3.org/2000/svg"
 width="1042.000000pt" height="583.000000pt" viewBox="0 0 1042.000000 583.000000"
 preserveAspectRatio="xMidYMid meet">

<g transform="translate(0.000000,583.000000) scale(0.100000,-0.100000)"
fill="#000000" stroke="none">
<path d="M40 2915 l0 -2915 3050 0 3050 0 2 735 3 735 -58 0 -57 0 2 218 3
217 58 0 c44 0 56 3 52 13 -3 8 -5 169 -5 358 l0 344 -1365 0 c-903 0 -1365 3
-1365 10 0 7 462 10 1365 10 l1365 0 0 1595 0 1595 -3050 0 -3050 0 0 -2915z
m5487 1433 c12 -13 60 -139 112 -293 50 -148 134 -396 187 -550 53 -154 98
-294 100 -311 2 -22 -3 -37 -18 -50 -18 -17 -42 -19 -267 -21 -137 -1 -229 2
-207 6 41 9 56 24 56 59 0 17 -79 262 -115 355 -6 14 -22 17 -109 19 l-101 2
97 3 97 4 -45 137 c-172 527 -212 642 -225 642 -5 0 -9 5 -9 10 0 6 78 10 213
10 209 0 214 -1 234 -22z m-594 -1225 c-29 -2 -77 -2 -105 0 -29 2 -6 3 52 3
58 0 81 -1 53 -3z m-1191 -823 c20 -6 60 -26 88 -45 43 -29 61 -35 104 -35 80
0 140 -25 200 -84 67 -65 91 -129 83 -223 -4 -57 -1 -72 22 -116 20 -39 27
-69 30 -129 3 -69 0 -85 -24 -134 -29 -60 -100 -124 -157 -143 -24 -8 -41 -25
-61 -61 -28 -52 -91 -105 -150 -127 -42 -15 -135 -16 -178 -2 -19 7 -55 27
-82 45 -40 29 -56 34 -105 34 -68 1 -119 18 -168 55 -78 60 -127 183 -107 269
8 36 7 48 -7 67 -56 80 -66 202 -25 286 32 64 100 128 153 144 32 9 44 19 58
51 10 22 40 59 67 84 72 65 169 89 259 64z m1121 -253 c62 -37 101 -87 126
-163 27 -82 27 -146 0 -228 -40 -122 -120 -186 -244 -194 -63 -4 -80 -1 -126
21 -63 30 -76 40 -111 87 -39 52 -58 116 -58 200 0 138 59 238 170 290 65 30
179 24 243 -13z m538 -150 c18 -12 47 -42 64 -66 28 -41 30 -48 30 -141 0 -93
-2 -100 -30 -141 -17 -24 -46 -54 -64 -66 -44 -30 -121 -31 -174 -3 l-37 20 0
-90 0 -90 -55 0 -55 0 0 295 0 295 55 0 c42 0 55 -4 55 -15 0 -12 6 -11 33 5
46 29 133 27 178 -3z m455 4 c69 -31 120 -123 112 -201 l-3 -35 -153 -3 -153
-3 7 -22 c20 -62 52 -87 114 -87 34 0 48 6 70 30 32 34 38 35 86 15 32 -13 34
-16 22 -37 -42 -73 -140 -117 -223 -98 -112 25 -175 106 -175 225 0 173 150
282 296 216z"/>
<path d="M3585 2211 c-99 -46 -125 -108 -125 -305 l0 -141 45 -27 45 -28 0
160 c0 127 3 162 15 173 8 9 56 39 107 68 145 82 139 75 87 98 -55 26 -122 26
-174 2z"/>
<path d="M3903 2142 c-17 -2 -89 -36 -160 -77 l-128 -73 -3 -51 c-2 -28 0 -51
3 -51 3 0 54 28 113 61 145 83 155 89 167 89 6 0 61 -29 123 -65 61 -36 114
-65 117 -65 3 0 5 18 5 39 0 118 -110 208 -237 193z"/>
<path d="M3338 2005 c-53 -36 -92 -120 -86 -185 9 -90 45 -132 188 -216 69
-40 132 -73 140 -73 8 0 32 10 53 23 l38 23 -143 84 -143 84 -5 143 -5 142
-37 -25z"/>
<path d="M3828 1949 c-21 -11 -38 -23 -38 -28 0 -5 61 -43 135 -86 l135 -77 0
-139 c0 -155 3 -160 60 -113 90 76 95 233 8 310 -31 28 -247 155 -260 154 -2
-1 -20 -10 -40 -21z"/>
<path d="M3668 1853 l-58 -34 0 -72 0 -72 59 -32 60 -33 60 36 61 36 0 67 c0
65 -1 67 -32 85 -18 10 -46 27 -63 36 -30 17 -31 17 -87 -17z"/>
<path d="M3900 1620 l0 -160 -52 -34 c-29 -18 -83 -50 -120 -70 -38 -21 -68
-41 -68 -46 0 -17 71 -40 124 -40 95 0 173 55 196 138 5 20 10 102 10 182 l0
145 -40 23 c-21 12 -41 22 -44 22 -4 0 -6 -72 -6 -160z"/>
<path d="M3710 1539 c-74 -43 -141 -79 -150 -79 -8 0 -66 29 -129 65 -62 36
-115 65 -117 65 -2 0 -4 -17 -4 -38 0 -117 137 -225 249 -196 22 6 96 44 165
84 l126 74 0 53 c0 29 -1 53 -2 52 -2 0 -64 -36 -138 -80z"/>
<path d="M4632 1944 c-95 -81 -96 -263 -2 -348 37 -33 45 -36 100 -36 58 0 62
2 104 43 91 91 88 261 -6 341 -37 32 -48 36 -98 36 -50 0 -61 -4 -98 -36z"/>
<path d="M5245 1816 c-40 -18 -56 -48 -62 -115 -6 -76 17 -121 72 -140 73 -25
131 20 137 104 4 67 -3 95 -29 125 -33 36 -76 45 -118 26z"/>
<path d="M5725 1818 c-21 -11 -54 -48 -55 -60 0 -5 43 -8 95 -8 52 0 95 2 95
5 0 2 -5 15 -11 28 -19 42 -81 59 -124 35z"/>
<path d="M6159 1893 c-13 -17 -13 -17 6 -3 11 8 22 16 24 17 2 2 0 3 -6 3 -6
0 -17 -8 -24 -17z"/>
<path d="M6156 1775 c-9 -26 -7 -32 5 -12 6 10 9 21 6 23 -2 3 -7 -2 -11 -11z"/>
<path d="M6300 1468 c0 -5 26 -7 58 -7 61 1 55 6 -15 11 -24 2 -43 0 -43 -4z"/>
<path d="M6488 1463 c6 -2 18 -2 25 0 6 3 1 5 -13 5 -14 0 -19 -2 -12 -5z"/>
</g>
</svg>
