<?xml version="1.0" standalone="no"?>
<!DOCTYPE svg PUBLIC "-//W3C//DTD SVG 20010904//EN"
 "http://www.w3.org/TR/2001/REC-SVG-20010904/DTD/svg10.dtd">
<svg version="1.0" xmlns="http://www.w3.org/2000/svg"
 width="512.000000pt" height="151.000000pt" viewBox="0 0 512.000000 151.000000"
 preserveAspectRatio="xMidYMid meet">

<g transform="translate(0.000000,151.000000) scale(0.100000,-0.100000)"
fill="#000000" stroke="none">
<path d="M4177 1314 c-44 -53 -77 -97 -74 -100 2 -2 75 -3 161 -2 l157 3 -81
98 c-45 53 -82 97 -83 96 -1 0 -37 -43 -80 -95z"/>
<path d="M240 1090 l0 -49 118 -3 117 -3 3 -192 2 -193 65 0 65 0 2 193 3 192
118 3 117 3 0 49 0 50 -305 0 -305 0 0 -50z"/>
<path d="M960 895 l0 -245 70 0 70 0 0 80 0 80 113 0 114 0 57 -80 58 -80 74
0 c41 0 74 2 74 5 0 3 -23 37 -51 76 -66 93 -66 95 -29 114 37 19 70 83 70
135 0 52 -38 110 -89 137 -43 22 -52 23 -288 23 l-243 0 0 -245z m471 116 c24
-29 24 -32 -2 -65 l-20 -26 -155 0 -154 0 0 61 0 60 156 -3 c150 -3 157 -4
175 -27z"/>
<path d="M1720 895 l0 -245 70 0 70 0 0 245 0 245 -70 0 -70 0 0 -245z"/>
<path d="M2030 896 l0 -246 205 0 c112 0 227 5 255 11 76 16 140 64 173 128
61 122 12 252 -123 322 -43 23 -56 24 -277 27 l-233 3 0 -245z m439 119 c50
-30 74 -67 75 -119 1 -56 -24 -93 -84 -123 -39 -20 -59 -23 -167 -23 l-123 0
0 146 0 146 133 -4 c110 -2 138 -6 166 -23z"/>
<path d="M2810 895 l0 -245 70 0 70 0 0 245 0 245 -70 0 -70 0 0 -245z"/>
<path d="M3110 948 l0 -191 43 -42 c58 -55 137 -78 267 -78 116 0 196 21 246
66 58 50 64 75 64 267 l0 170 -70 0 -70 0 0 -168 c0 -162 -1 -169 -22 -190
-13 -11 -36 -25 -51 -31 -40 -16 -172 -14 -211 3 -61 25 -66 42 -66 223 l0
163 -65 0 -65 0 0 -192z"/>
<path d="M3890 895 l0 -245 65 0 65 0 0 165 c0 91 3 165 8 164 4 0 56 -59 115
-130 60 -71 112 -129 116 -129 4 0 57 58 117 129 l109 130 3 -165 2 -164 70 0
70 0 0 245 0 245 -82 0 -83 0 -99 -120 c-55 -66 -103 -120 -108 -120 -4 0 -51
54 -105 119 l-98 120 -82 0 -83 1 0 -245z"/>
<path d="M4797 483 c-48 -60 -87 -114 -87 -120 0 -16 127 -18 150 -3 10 7 -6
10 -53 10 -38 0 -67 4 -65 8 7 17 133 171 141 171 4 1 7 -62 7 -140 0 -91 4
-138 10 -134 6 3 10 22 10 41 0 30 3 34 25 34 14 0 25 5 25 10 0 6 -11 10 -25
10 l-25 0 0 110 c0 84 -3 110 -13 110 -7 0 -52 -48 -100 -107z"/>
<path d="M3567 464 c-8 -8 1 -24 14 -24 5 0 9 7 9 15 0 15 -12 20 -23 9z"/>
<path d="M3366 359 c-21 -17 -26 -18 -26 -5 0 9 -4 16 -10 16 -6 0 -10 -43
-10 -110 0 -67 4 -110 10 -110 6 0 10 34 10 81 0 92 7 111 50 129 24 10 36 10
59 0 39 -16 44 -29 51 -130 l7 -85 1 97 c2 93 1 97 -24 117 -15 12 -41 21 -59
21 -18 0 -44 -9 -59 -21z"/>
<path d="M3668 374 c-38 -11 -15 -20 37 -16 78 6 95 -10 95 -94 0 -56 -3 -65
-26 -83 -48 -38 -134 -16 -134 34 0 29 38 55 79 55 22 0 43 5 46 10 8 13 -55
13 -89 0 -14 -5 -32 -21 -42 -35 -14 -21 -14 -30 -5 -54 22 -51 83 -65 139
-31 39 24 43 25 36 5 -4 -8 -1 -15 5 -15 7 0 11 31 11 89 0 112 -13 132 -86
137 -27 1 -57 0 -66 -2z"/>
<path d="M3915 368 c-37 -20 -55 -52 -55 -96 0 -60 41 -102 100 -102 44 0 80
14 80 31 0 6 -10 3 -22 -5 -33 -23 -72 -19 -107 10 -42 35 -44 98 -5 135 36
34 95 33 132 -4 25 -26 27 -33 27 -113 0 -82 -1 -87 -28 -110 -33 -28 -83 -32
-128 -8 -32 16 -55 11 -29 -7 35 -22 94 -31 132 -20 60 18 69 41 69 176 1 64
-2 119 -5 122 -3 4 -6 -3 -6 -15 0 -27 -5 -27 -37 -2 -28 22 -86 26 -118 8z"/>
<path d="M4168 373 c-39 -10 -15 -19 41 -15 52 4 60 2 75 -19 10 -15 16 -44
16 -80 0 -50 -3 -60 -26 -78 -50 -39 -134 -17 -134 34 0 30 35 55 77 55 17 0
35 5 38 10 9 15 -50 12 -89 -4 -57 -24 -61 -93 -6 -121 39 -20 69 -19 108 5
26 16 32 17 32 5 0 -8 5 -15 10 -15 14 0 13 153 -1 183 -18 40 -78 57 -141 40z"/>
<path d="M4434 361 c-18 -11 -34 -25 -37 -33 -3 -7 -6 -1 -6 15 -1 15 -5 27
-11 27 -6 0 -10 -43 -10 -110 0 -67 4 -110 10 -110 6 0 10 29 10 66 0 36 5 75
11 87 15 29 50 56 72 57 9 0 17 5 17 10 0 15 -22 12 -56 -9z"/>
<path d="M4543 370 c-35 -14 -28 -18 21 -13 61 7 90 -2 104 -32 15 -33 15 -87
1 -118 -21 -46 -101 -63 -132 -29 -38 42 -7 92 56 92 20 0 39 5 43 11 12 20
-93 5 -116 -16 -27 -24 -26 -76 1 -101 28 -25 99 -26 126 -1 24 21 30 21 36
-1 3 -9 5 27 6 80 1 93 0 97 -25 117 -28 22 -82 27 -121 11z"/>
<path d="M3570 260 c0 -67 4 -110 10 -110 6 0 10 43 10 110 0 67 -4 110 -10
110 -6 0 -10 -43 -10 -110z"/>
</g>
</svg>
